<svg width="24" height="24" viewBox="0 0 24 24" fill="none" xmlns="http://www.w3.org/2000/svg">
<path d="M18.99 6.08985C18.73 5.77985 18.3 5.68985 17.92 5.80985C17.11 6.07985 16.19 6.00985 15.39 5.55985C14.59 5.09985 14.07 4.33985 13.89 3.50985C13.8 3.10985 13.5 2.77985 13.1 2.71985C12.1 2.55985 11.06 2.55985 10.04 2.72985C9.64001 2.79985 9.35001 3.11985 9.26001 3.51985C9.08001 4.35985 8.57001 5.11985 7.77001 5.58985C6.97001 6.05985 6.05001 6.11985 5.24001 5.85985C4.86001 5.73985 4.43001 5.82985 4.17001 6.13985C3.52001 6.94985 3.01001 7.84985 2.66001 8.79985C2.52001 9.17985 2.66001 9.59985 2.96001 9.85985C3.59001 10.4399 3.99001 11.2699 4.00001 12.1899C4.00001 13.1199 3.60001 13.9399 2.97001 14.5199C2.67001 14.7899 2.54001 15.2099 2.68001 15.5799C2.86001 16.0499 3.08001 16.5199 3.34001 16.9699C3.60001 17.4199 3.90001 17.8399 4.22001 18.2299C4.48001 18.5399 4.91001 18.6299 5.29001 18.5099C6.10001 18.2399 7.02001 18.3099 7.82001 18.7599C8.62001 19.2199 9.14001 19.9799 9.32001 20.8099C9.41001 21.1999 9.70001 21.5299 10.1 21.5899C11.11 21.7499 12.14 21.7499 13.16 21.5799C13.56 21.5099 13.85 21.1899 13.94 20.7899C14.12 19.9499 14.63 19.1899 15.43 18.7199C16.23 18.2499 17.15 18.1899 17.96 18.4499C18.35 18.5699 18.78 18.4799 19.03 18.1599C19.68 17.3499 20.19 16.4499 20.55 15.4999C20.69 15.1199 20.55 14.6999 20.25 14.4399C19.61 13.8699 19.21 13.0399 19.2 12.1199C19.2 11.1899 19.6 10.3699 20.23 9.78985C20.53 9.51985 20.66 9.09985 20.52 8.72985C20.34 8.25985 20.12 7.78985 19.86 7.33985C19.61 6.88985 19.31 6.47985 18.99 6.08985Z" stroke="white" stroke-width="1.2" stroke-miterlimit="10" stroke-linecap="round" stroke-linejoin="round"/>
<path d="M11.61 15.12C13.2448 15.12 14.57 13.7947 14.57 12.16C14.57 10.5252 13.2448 9.19995 11.61 9.19995C9.97526 9.19995 8.65002 10.5252 8.65002 12.16C8.65002 13.7947 9.97526 15.12 11.61 15.12Z" stroke="white" stroke-width="1.2" stroke-miterlimit="10" stroke-linecap="round" stroke-linejoin="round"/>
</svg>
