<svg width="24" height="24" viewBox="0 0 24 24" fill="none" xmlns="http://www.w3.org/2000/svg">
<path d="M17.1685 9.5385C18.2043 8.20307 17.9614 6.28081 16.626 5.24502C15.2906 4.20922 13.3683 4.45212 12.3325 5.78755C11.2967 7.12299 11.5396 9.04524 12.875 10.081C14.2105 11.1168 16.1327 10.8739 17.1685 9.5385Z" stroke="white" stroke-width="1.2" stroke-miterlimit="10" stroke-linecap="round" stroke-linejoin="round"/>
<path d="M8.83984 18.86C8.83984 15.6 11.4898 12.95 14.7498 12.95C18.0098 12.95 20.6598 15.6 20.6598 18.86" stroke="white" stroke-width="1.2" stroke-miterlimit="10" stroke-linecap="round" stroke-linejoin="round"/>
<path d="M8.61389 9.59881C9.17222 8.55709 8.78035 7.26 7.73863 6.70168C6.69692 6.14335 5.39983 6.53522 4.8415 7.57694C4.28318 8.61866 4.67505 9.91575 5.71676 10.4741C6.75848 11.0324 8.05557 10.6405 8.61389 9.59881Z" stroke="white" stroke-width="1.2" stroke-miterlimit="10" stroke-linecap="round" stroke-linejoin="round"/>
<path d="M2.6001 16.41C2.6001 14.13 4.4501 12.28 6.7301 12.28C8.4201 12.28 9.8701 13.29 10.5101 14.75" stroke="white" stroke-width="1.2" stroke-miterlimit="10" stroke-linecap="round" stroke-linejoin="round"/>
</svg>
